<svg width="55" height="62" viewBox="0 0 55 62" fill="none" xmlns="http://www.w3.org/2000/svg">
<path d="M54.1018 0L48.0207 2.22051L43.145 5.25042L41.9454 6.35143L38.7648 7.43193L37.4601 9.59024L34.4057 11.3972L31.7052 11.3506L27.3205 10.3244L26.5733 10.6374V10.0058L24.3191 9.75516L23.9055 9.94843L23.5357 8.63776L22.4081 8.11693L20.7105 8.45765L20.6879 8.45164L20.4488 7.8361L18.7635 5.78194L0 5.95917V49.9157L1.75515 50.4749C2.06595 50.709 2.46314 50.9185 2.88989 50.9185C2.9704 50.9185 3.05196 50.911 3.13417 50.8948C3.35844 50.8714 4.30721 50.8381 5.22203 50.815C5.43782 51.0102 5.63713 51.1961 5.71708 51.2806C5.85846 51.4904 6.43486 52.3383 6.68536 52.5889C6.78987 52.6935 7.00423 52.8913 7.17869 53.0503L7.39047 53.8987L8.35961 56.0823L11.7471 56.1528L11.8469 56.1363C12.0339 56.1056 12.2454 56.0757 12.3548 56.0637L13.2807 57.6739L14.464 58.4145L15.9965 59.011L16.4388 58.7792C16.8225 58.5781 17.2518 58.3692 17.4303 58.2956C17.6161 58.2719 17.9755 58.2122 18.7398 58.0611L19.1904 58.1456L20.3235 58.8548L22.2222 58.1934L23.7826 57.0218L24.3525 56.2472L24.2726 57.0998L25.6786 58.2437L26.7725 58.8115L26.9529 59.67L28.6731 61.2645C28.9014 61.4725 29.4807 62 30.1263 62C30.313 62 30.5055 61.9559 30.6964 61.8472C30.9004 61.7629 31.6613 61.5112 32.3102 61.3073L34.1769 60.9957L34.0791 59.2388L34.2992 58.5343L35.6265 58.056L35.3244 55.6356L35.588 54.3588C36.1731 53.0026 36.1731 52.8175 36.1731 52.6214C36.1731 52.542 36.1639 52.2797 36.1531 51.9907C36.189 52.1835 36.2916 52.4913 36.5834 53.0398L36.7682 53.3864L38.1565 53.9664L39.0188 52.9892L39.4906 53.1579L40.8796 52.5085L40.5291 50.4043L40.1055 49.9199L40.2128 49.7482L40.2542 49.6759C40.8884 48.4635 40.946 48.2909 40.9701 48.2183C41.0194 48.0707 41.0993 47.7265 41.1704 47.4029L42.5972 48.0075L43.3566 46.2974L43.3071 45.2057L44.0701 46.0795L45.8403 45.4461L46.8378 44.115L47.8385 43.6695L48.8992 42.0767L50.0123 41.1382L50.9236 38.8876L51.6847 36.5522L51.8212 35.4113L52.5888 34.4658L52.5667 34.043C52.5463 33.6575 52.5141 32.9657 52.5141 32.7509V32.2682L53.156 31.7765L54.101 30.279L53.9249 27.8107L54.1786 26.6677L54.056 26.3549C53.8814 25.9104 53.6809 25.3758 53.5793 25.0788C53.6283 24.9345 53.7001 24.7355 53.7779 24.5276L55 24.0518L54.9407 15.0867L54.1018 0Z" fill="#00694E"/>
<circle cx="24.5" cy="45.5" r="3.5" fill="#C4AD4D"/>
</svg>
